<svg id="Colored" xmlns="http://www.w3.org/2000/svg" viewBox="0 0 5941.99 939.64"><defs><style>.cls-1{fill:#69a6da;}.cls-2{fill:#f5cb37;}.cls-3{fill:#6ac5a8;}.cls-4{fill:#f26522;}.cls-5{fill:#414042;}</style></defs><title>Logo Customerly + Nome + White</title><path class="cls-1" d="M662.27,818c-120.38,0-218-97.59-218-218s97.59-218,218-218a217.58,217.58,0,0,1,171.88,83.92l201.29-149.61c-85.62-112.48-220.9-185.09-373.17-185.09-258.88,0-468.75,209.87-468.75,468.75s209.87,468.75,468.75,468.75c152.27,0,287.55-72.62,373.17-185.09L834.15,734.05A217.58,217.58,0,0,1,662.27,818Z" transform="translate(-193.52 -131.25)"/><g id="Yellow"><path class="cls-2" d="M1020.3,600a218.13,218.13,0,0,1-8.21,59.47l242,65.79a471.24,471.24,0,0,0,0-250.52l-242,65.79A218.13,218.13,0,0,1,1020.3,600Z" transform="translate(-193.52 -131.25)"/></g><g id="Green"><path class="cls-3" d="M969.46,749.33l201.29,149.61a467.14,467.14,0,0,0,78.63-158.4h0l-.07,0-242-65.77A217.27,217.27,0,0,1,969.46,749.33Z" transform="translate(-193.52 -131.25)"/></g><g id="Red"><path class="cls-4" d="M969.46,448.79a217.27,217.27,0,0,1,37.88,74.59l242-65.79a467.14,467.14,0,0,0-78.63-158.4Z" transform="translate(-193.52 -131.25)"/></g><path class="cls-5" d="M2028.69,772.35a18.82,18.82,0,0,1,14.26,6.44l38.64,42.32a276,276,0,0,1-98.67,74.06q-58.2,26.22-140.07,26.22-71.76,0-130-24.84t-99.36-69.46q-41.17-44.61-63.71-106.72t-22.54-136.62q0-74.52,23.69-136.62t66.47-106.72Q1660.23,295.8,1719.8,271t131.79-24.84q70.38,0,125.12,23t95.22,61.18l-32.2,45.54a27.58,27.58,0,0,1-8,8.28q-4.83,3.22-12.65,3.22-8.74,0-20.47-8.74A302.56,302.56,0,0,0,1967.74,359q-19.09-10.8-47.15-19.55t-69.92-8.74q-49.23,0-90.16,17.25a199.52,199.52,0,0,0-70.61,49.68q-29.67,32.43-46,79.58t-16.33,106.49q0,60.27,17,107.18t46.92,79.58a198.76,198.76,0,0,0,70.38,49.68q40.47,17,87.4,17a344.71,344.71,0,0,0,51.29-3.45,220,220,0,0,0,41.86-10.35,183.52,183.52,0,0,0,36.11-17.71,241.45,241.45,0,0,0,33.58-26,37.1,37.1,0,0,1,7.82-5.29A19.28,19.28,0,0,1,2028.69,772.35Z" transform="translate(-193.52 -131.25)"/><path class="cls-5" d="M2543.42,446.67V914H2489.6q-18.4,0-23.92-17.94l-6.44-46.92a315.82,315.82,0,0,1-31.74,29.44,194,194,0,0,1-75.44,37.49,187.63,187.63,0,0,1-45.54,5.29q-38.64,0-67.85-12.88a134.54,134.54,0,0,1-49-36.11q-19.78-23.22-29.9-55.89t-10.12-72.22V446.67h90.16V744.29q0,50.14,23,78t70.38,27.83a132.24,132.24,0,0,0,64.4-16.33q29.9-16.32,56.12-44.85V446.67Z" transform="translate(-193.52 -131.25)"/><path class="cls-5" d="M2944.53,527.17q-3.69,6-7.82,8.51a20,20,0,0,1-10.58,2.53q-7.36,0-16.33-5.06t-21.62-11a211.17,211.17,0,0,0-29.67-11q-17-5.06-40.48-5.06a120.53,120.53,0,0,0-35.19,4.83,83.44,83.44,0,0,0-26.91,13.34,59.53,59.53,0,0,0-17,20.24,54.4,54.4,0,0,0-6,25.07q0,17.49,10.35,29t27.14,19.78a263.83,263.83,0,0,0,38.18,14.95q21.39,6.67,43.7,14T2896,664a159.69,159.69,0,0,1,38.18,23.46,110.22,110.22,0,0,1,27.14,33.81q10.35,19.78,10.35,48.3,0,32.67-11.73,60.49a132.28,132.28,0,0,1-34.5,48.07q-22.77,20.25-56.35,31.74t-76.82,11.5q-48.3,0-89.24-16.1t-68.54-40.94l21.16-34.5a27.36,27.36,0,0,1,9.2-9.89q5.52-3.45,14.72-3.45,8.73,0,17.94,6.44t22.08,14a166.93,166.93,0,0,0,31.28,13.8q18.39,6.21,46,6.21,23,0,40-5.75t28.29-15.64A63.28,63.28,0,0,0,2882,812.83a68.16,68.16,0,0,0,5.52-27.14q0-18.39-10.35-30.59T2850,734.17A219,219,0,0,0,2811.59,719q-21.63-6.44-44.16-13.8a450.75,450.75,0,0,1-44.16-17,151.43,151.43,0,0,1-38.41-24.38,113.16,113.16,0,0,1-27.14-35.88q-10.35-21.15-10.35-51.52a124.36,124.36,0,0,1,11.27-52,128.8,128.8,0,0,1,32.66-43.7q21.39-18.86,52.9-30.13t72-11.27q46.46,0,84,14.72t64.17,40.48Z" transform="translate(-193.52 -131.25)"/><path class="cls-5" d="M3215,921.39q-56.58,0-87.17-31.74T3097.25,799V519.35H3043a18.7,18.7,0,0,1-13.11-4.83q-5.29-4.83-5.29-14.49V463.69l75.9-10.58,20.24-139.38a21.66,21.66,0,0,1,7.13-12.19q5.28-4.37,13.57-4.37h45.54V454h132.48v65.32H3186.95v273.7q0,27.6,13.57,41.17t34.73,13.57q12.42,0,21.39-3.22a84.89,84.89,0,0,0,15.41-7.13q6.44-3.9,11-7.13t8.28-3.22q4.59,0,7.13,2.07a26,26,0,0,1,5.29,6.67l26.68,43.24q-22.08,20.25-52.44,31.28A183,183,0,0,1,3215,921.39Z" transform="translate(-193.52 -131.25)"/><path class="cls-5" d="M3598.19,439.31q51.51,0,93.15,16.79t70.84,48.3q29.21,31.51,44.85,75.9t15.64,99.59q0,55.2-15.64,99.82t-44.85,75.9q-29.22,31.29-70.84,48.07t-93.15,16.79q-52,0-93.61-16.79t-71.07-48.07q-29.44-31.28-45.31-75.9t-15.87-99.82q0-55.2,15.87-99.59t45.31-75.9q29.43-31.5,71.07-48.3T3598.19,439.31Zm0,411.24q66.24,0,98.9-44.62t32.66-125.58q0-81-32.66-125.81t-98.9-44.85q-67.17,0-100,44.85t-32.89,125.81q0,81,32.89,125.58T3598.19,850.55Z" transform="translate(-193.52 -131.25)"/><path class="cls-5" d="M3922.48,914V446.67h53.82q18.86,0,23.46,17.94l6.44,44.62q25.76-30.81,57.27-50.37t73.83-19.55q46.46,0,75.44,25.53t42.32,69.23a145.41,145.41,0,0,1,26.22-42.78,148.13,148.13,0,0,1,35.88-29.44,159.6,159.6,0,0,1,42.09-17,187.93,187.93,0,0,1,45.31-5.52q37.26,0,66.47,11.73a131.18,131.18,0,0,1,49.45,34.27q20.24,22.54,30.82,55.66t10.58,75.44V914h-90.16V616.41q0-52.44-22.77-79.12t-66.47-26.68a102.44,102.44,0,0,0-36.8,6.67,84.81,84.81,0,0,0-30.59,20q-13.11,13.35-20.7,33.12t-7.59,46V914h-90.16V616.41q0-54.27-21.62-80t-63.48-25.76a101.34,101.34,0,0,0-53.82,15.18q-24.84,15.18-45.54,41.4V914Z" transform="translate(-193.52 -131.25)"/><path class="cls-5" d="M5066.49,847.33a176.66,176.66,0,0,1-38.18,33.35,221.36,221.36,0,0,1-46,22.77,279,279,0,0,1-50.37,12.88,325.78,325.78,0,0,1-51.29,4.14q-48.3,0-89.47-16.33a198.71,198.71,0,0,1-71.3-47.84q-30.13-31.5-46.92-78.2t-16.79-107.41q0-48.75,15.18-90.85t43.47-73.37q28.29-31.28,69.23-49.22t92-17.94q42.78,0,78.89,14a175.35,175.35,0,0,1,62.33,40.71q26.22,26.68,41.17,65.78t14.95,89.24q0,20.7-4.6,27.83t-17,7.13H4745.41q1.38,41.86,12,72.91t29.21,51.75A116,116,0,0,0,4831,839.51q25.76,10.12,57.5,10.12,29.9,0,51.75-6.9a250.93,250.93,0,0,0,37.72-15q15.87-8,26.68-15t19.09-6.9q11,0,17,8.28Zm-74.06-219a153.39,153.39,0,0,0-7.59-49.22,111.85,111.85,0,0,0-22.31-39.1,101.56,101.56,0,0,0-35.88-25.76q-21.16-9.2-48.76-9.2-56.58,0-89,32.66t-41.17,90.62Z" transform="translate(-193.52 -131.25)"/><path class="cls-5" d="M5254.63,536.37q22.53-46,54.28-72.22t76.36-26.22a116.3,116.3,0,0,1,28.75,3.45,74.11,74.11,0,0,1,23.69,10.35l-6,67.62q-3.22,12.42-15.18,12.42-6.45,0-19.32-2.53a143.57,143.57,0,0,0-27.6-2.53q-21.63,0-38.18,6.21a89.26,89.26,0,0,0-29.67,18.4,125.34,125.34,0,0,0-23.23,29.9,298.88,298.88,0,0,0-18.86,40.25V914H5170V446.67h51.52q14.72,0,20,5.29t7.59,18.63Z" transform="translate(-193.52 -131.25)"/><path class="cls-5" d="M5599.16,235.07V914H5509v-679Z" transform="translate(-193.52 -131.25)"/><path class="cls-5" d="M6135.51,446.67l-259.44,603.06q-4.14,10.11-11,15.64t-20.24,5.52h-66.7l85.56-186.3L5671.83,446.67H5750q11.49,0,17.94,5.52a32.07,32.07,0,0,1,9.2,12.42l118.68,280.6q3.68,10.59,7.13,21.39t5.75,21.39q3.21-11,6.9-21.85t7.82-21.39L6038,464.61a29.75,29.75,0,0,1,10.12-12.88,25.79,25.79,0,0,1,15.64-5.06Z" transform="translate(-193.52 -131.25)"/></svg>